#tb 0: 1/22050
0,          0,          0,     1378,     2756, 0x0af35034
0,       1378,       1378,     1378,     2756, 0x8462443f
0,       2756,       2756,     1378,     2756, 0x9f493ba6
0,       4134,       4134,     1378,     2756, 0x634e5f06
0,       5513,       5513,     1380,     2760, 0x51f35cd4
0,       6891,       6891,     1378,     2756, 0x011c51e5
0,       8269,       8269,     1378,     2756, 0x8c2c198c
0,       9647,       9647,     1378,     2756, 0x2b4a3397
0,      11025,      11025,     1378,     2756, 0x63794f22
0,      12403,      12403,     1378,     2756, 0xfc363898
0,      13781,      13781,     1378,     2756, 0x0da5486e
0,      15159,      15159,     1378,     2756, 0xbae17a5f
0,      16538,      16538,     1380,     2760, 0xba266e1b
0,      17916,      17916,     1378,     2756, 0xdfb61002
0,      19294,      19294,     1378,     2756, 0x15d029da
0,      20672,      20672,     1378,     2756, 0x7bc82012
0,      22050,      22050,     1378,     2756, 0x002e6999
0,      23428,      23428,     1378,     2756, 0x96346ba6
0,      24806,      24806,     1378,     2756, 0x3d54543b
0,      26184,      26184,     1380,     2760, 0x601786e1
0,      27563,      27563,     1378,     2756, 0xf22a5793
0,      28941,      28941,     1378,     2756, 0x21f54d49
0,      30319,      30319,     1378,     2756, 0x0c6d4399
0,      31697,      31697,     1378,     2756, 0x17282f8e
0,      33075,      33075,     1378,     2756, 0xeb698f75
0,      34453,      34453,     1378,     2756, 0x935e1de2
0,      35831,      35831,     1380,     2760, 0xb6fb4293
0,      37209,      37209,     1378,     2756, 0x485053dc
0,      38588,      38588,     1378,     2756, 0x24c35027
0,      39966,      39966,     1378,     2756, 0x09f323ee
0,      41344,      41344,     1378,     2756, 0xbc7d58d5
0,      42722,      42722,     1378,     2756, 0xaefd487c
0,      44100,      44100,     1378,     2756, 0xaca16cc0
0,      45478,      45478,     1380,     2760, 0x98a76091
0,      46856,      46856,     1378,     2756, 0x5d357141
0,      48234,      48234,     1378,     2756, 0x65ea2657
0,      49613,      49613,     1378,     2756, 0xb5e1334a
0,      50991,      50991,     1378,     2756, 0x32cd5d91
0,      52369,      52369,     1378,     2756, 0xdc23722b
0,      53747,      53747,     1378,     2756, 0x2ba34684
0,      55125,      55125,     1378,     2756, 0xf9755ba8
0,      56503,      56503,     1380,     2760, 0x24221ddb
0,      57881,      57881,     1378,     2756, 0xef843aa4
0,      59259,      59259,     1378,     2756, 0x420442fe
0,      60638,      60638,     1378,     2756, 0x5a0933cb
0,      62016,      62016,     1378,     2756, 0xef5f6d61
0,      63394,      63394,     1378,     2756, 0xe57e6dc0
0,      64772,      64772,     1378,     2756, 0xc0f0495a
0,      66150,      66150,     1380,     2760, 0x2c3b55df
0,      67528,      67528,     1378,     2756, 0x39c2586c
0,      68906,      68906,     1378,     2756, 0x7ffc46e5
0,      70284,      70284,     1378,     2756, 0xa2766664
0,      71663,      71663,     1378,     2756, 0xacb50c6c
0,      73041,      73041,     1378,     2756, 0x7f659084
0,      74419,      74419,     1378,     2756, 0xc72e6a12
0,      75797,      75797,     1380,     2760, 0xdb6944df
0,      77175,      77175,     1378,     2756, 0x954f45c1
0,      78553,      78553,     1378,     2756, 0xa9484240
0,      79931,      79931,     1378,     2756, 0x1d595349
0,      81309,      81309,     1378,     2756, 0xcf2a565e
0,      82688,      82688,     1378,     2756, 0x391028d5
0,      84066,      84066,     1378,     2756, 0x348db7ad
0,      85444,      85444,     1380,     2760, 0xb69b5e3a
0,      86822,      86822,     1378,     2756, 0xe3635fbe
0,      88200,      88200,     1378,     2756, 0xdcad3654
0,      89578,      89578,     1378,     2756, 0x5c17abef
0,      90956,      90956,     1378,     2756, 0xb3235184
0,      92334,      92334,     1378,     2756, 0xdabb64a6
0,      93713,      93713,     1378,     2756, 0xa95dc58d
0,      95091,      95091,     1380,     2760, 0x8e7ac9eb
0,      96469,      96469,     1378,     2756, 0x492b658e
0,      97847,      97847,     1378,     2756, 0x377483ab
0,      99225,      99225,     1378,     2756, 0x2c250279
0,     100603,     100603,     1378,     2756, 0x704dbdb3
0,     101981,     101981,     1378,     2756, 0x800d7da2
0,     103359,     103359,     1378,     2756, 0x872aa32e
0,     104738,     104738,     1378,     2756, 0x2d4837fe
0,     106116,     106116,     1380,     2760, 0xc89ea57e
0,     107494,     107494,     1378,     2756, 0x6447d7ef
0,     108872,     108872,     1378,     2756, 0x144f59cc
0,     110250,     110250,     1378,     2756, 0xc667154e
0,     111628,     111628,     1378,     2756, 0xf0de66ae
0,     113006,     113006,     1378,     2756, 0xeabf3c32
0,     114384,     114384,     1378,     2756, 0xe98e81d1
0,     115763,     115763,     1380,     2760, 0x56aa5889
0,     117141,     117141,     1378,     2756, 0x4fd34c0e
0,     118519,     118519,     1378,     2756, 0x67cf6912
0,     119897,     119897,     1378,     2756, 0xfa944def
0,     121275,     121275,     1378,     2756, 0xc12f23b2
0,     122653,     122653,     1378,     2756, 0x5ea325a2
0,     124031,     124031,     1378,     2756, 0x2b245824
0,     125409,     125409,     1380,     2760, 0x90ac533e
0,     126788,     126788,     1378,     2756, 0xcca34d26
0,     128166,     128166,     1378,     2756, 0xb5f820d0
0,     129544,     129544,     1378,     2756, 0x27f24335
0,     130922,     130922,     1378,     2756, 0x4a9e87b7
0,     132300,     132300,     1378,     2756, 0xbd076129
0,     133678,     133678,     1378,     2756, 0x2e0e3f2e
0,     135056,     135056,     1380,     2760, 0xdf534478
0,     136434,     136434,     1378,     2756, 0xca000a2e
0,     137813,     137813,     1378,     2756, 0x87472df3
0,     139191,     139191,     1378,     2756, 0x16733810
0,     140569,     140569,     1378,     2756, 0xfa0734b4
0,     141947,     141947,     1378,     2756, 0x5eff3fc4
0,     143325,     143325,     1378,     2756, 0xf35346bd
0,     144703,     144703,     1378,     2756, 0xac6411c5
0,     146081,     146081,     1380,     2760, 0x478c3c56
0,     147459,     147459,     1378,     2756, 0xebd30bdd
0,     148838,     148838,     1378,     2756, 0xaef95a31
0,     150216,     150216,     1378,     2756, 0x8aad29d1
0,     151594,     151594,     1378,     2756, 0x626863f0
0,     152972,     152972,     1378,     2756, 0x68c05707
0,     154350,     154350,     1378,     2756, 0x437c5e8d
0,     155728,     155728,     1380,     2760, 0x8eca4bdb
0,     157106,     157106,     1378,     2756, 0x62bd4162
0,     158484,     158484,     1378,     2756, 0x9f744aa4
0,     159863,     159863,     1378,     2756, 0x0f3f6409
0,     161241,     161241,     1378,     2756, 0x3fee827a
0,     162619,     162619,     1378,     2756, 0x48a0ac19
0,     163997,     163997,     1378,     2756, 0x8e4ce0d0
0,     165375,     165375,     1380,     2760, 0xcda82236
0,     166753,     166753,     1378,     2756, 0x0e523255
0,     168131,     168131,     1378,     2756, 0x84103d30
0,     169509,     169509,     1378,     2756, 0x13941cde
0,     170888,     170888,     1378,     2756, 0x9fc834c5
0,     172266,     172266,     1378,     2756, 0xc0217a77
0,     173644,     173644,     1378,     2756, 0x3f643659
0,     175022,     175022,     1380,     2760, 0x9dbd6002
0,     176400,     176400,     1378,     2756, 0x94f046fb
0,     177778,     177778,     1378,     2756, 0xab01fb12
0,     179156,     179156,     1378,     2756, 0x04cffe5c
0,     180534,     180534,     1378,     2756, 0xef661c5e
0,     181913,     181913,     1378,     2756, 0x094c5fc5
0,     183291,     183291,     1378,     2756, 0xe0c1486a
0,     184669,     184669,     1380,     2760, 0x8c3535b7
0,     186047,     186047,     1378,     2756, 0x594934aa
0,     187425,     187425,     1378,     2756, 0x74007238
0,     188803,     188803,     1378,     2756, 0x61f1394d
0,     190181,     190181,     1378,     2756, 0x72584f07
0,     191559,     191559,     1378,     2756, 0xced9acf9
0,     192938,     192938,     1378,     2756, 0x7d2e3ea1
0,     194316,     194316,     1378,     2756, 0x56c06897
0,     195694,     195694,     1380,     2760, 0x19983bbf
0,     197072,     197072,     1378,     2756, 0x4f884f27
0,     198450,     198450,     1378,     2756, 0x81ab2f63
0,     199828,     199828,     1378,     2756, 0x448e681d
0,     201206,     201206,     1378,     2756, 0x0ba9826e
0,     202584,     202584,     1378,     2756, 0x049f36fa
0,     203963,     203963,     1378,     2756, 0x096a2b62
0,     205341,     205341,     1380,     2760, 0x579e2035
0,     206719,     206719,     1378,     2756, 0xd13e30e1
0,     208097,     208097,     1378,     2756, 0x30b6412b
0,     209475,     209475,     1378,     2756, 0xbb1c3268
0,     210853,     210853,     1378,     2756, 0xbc175b6a
0,     212231,     212231,     1378,     2756, 0xf8d160e2
0,     213609,     213609,     1378,     2756, 0xc1048154
0,     214988,     214988,     1380,     2760, 0xb83548f4
0,     216366,     216366,     1378,     2756, 0x22647962
0,     217744,     217744,     1378,     2756, 0x14ca54d3
0,     219122,     219122,     1378,     2756, 0x58754b3a
